<svg id="Layer_1" data-name="Layer 1" xmlns="http://www.w3.org/2000/svg" viewBox="0 0 297.8 291.2">
  <defs>
    <style>
      .cls-1 {
        fill: #fff;
      }
    </style>
  </defs>
  <title>california-dreaming</title>
  <g>
    <path class="cls-1" d="M270.4,54.2a33.3,33.3,0,0,0-32.7-40.8,33.1,33.1,0,0,0-14.3,3.3A40.2,40.2,0,0,0,152.8,27l-2.3-.2a33.3,33.3,0,0,0-32.9,39.9,33.4,33.4,0,1,0,39.6,53.9,32.9,32.9,0,0,0,41.8,9.9,33.4,33.4,0,0,0,65.5-9.7h0a33.5,33.5,0,0,0,5.9-66.5Z" transform="translate(-0.3)"/>
    <circle class="cls-1" cx="167" cy="157.6" r="16.8"/>
    <circle class="cls-1" cx="133.5" cy="177.7" r="10.1"/>
  </g>
  <path class="cls-1" d="M126.3,291.2c0-1.8-1.7-2.8-2.2-7.2-.5-8.4-13.4-20.1-16.7-19.5s-4.6.8-4.5-.2,1.6-6.3-5.2-6-9.7-1.6-12.5-6.2-6.2-.8-7.9-2.4-7.6-1.5-11.7-1-3.9-3.8-3.7-5.3-1.5-1.7-.7-4.8.6-6.1-.5-6.1-4.5.1-3-2.5-3.7-5.4-4.5-6.4-4.2-3.4-4.8-5.9-2.4-1-3.2-5.1-4.9-2.7-5.5-6.2-4.1-5.3.5-5.7,1.1-10.6-.8-10-1.7,2-5.3-1.1-1.9-4.8-3.7-10-1.6-5.6,1.3-2,8.6,5.9,5.6,1.6S32,175,34.3,168.8s-4.8-3.8-4.9-.1-2.2,1.5-6.5-1.5,1.6-1.5.8-2.4a14.7,14.7,0,0,1-2.4-4.5c-.3-1.3-2.9-3.5-2.9-3.5-3.6-2.6,1.4.9-5.4-6.3s-.6-4.6-2.1-7.6c-2.9-5.5-1.6-8.2-1.6-8.2,3.7-6.2-5.3-15.4-7.4-17.2S.7,113.7.3,112.3s4.3-9.3,5.4-11.9-1-2.5-.5-3.3c3.3-6.4,1.2-10.6.9-12.9s-2.3,0-1.7-1.5a23.7,23.7,0,0,0,1-4.8l69.3,2.9L74.1,147l96.1,88.6s-.5,2.4.2,2.9.7,2,2.6,3,.2,3.3,2.2,5.2,3.7,2.9,4.2,3.4.8,2.1-1.5,3.5-3.8.6-3.2,3-2.6,2.2-2.6,2.2a5,5,0,0,1,1.3,3.7c-.2,2.2-.1,8-2.5,8.2s-.7,2.9-.4,3.1a4.8,4.8,0,0,1-.2,4.2c-.9,1.6,1.1,1.5,2,1.4s2.2.1,2.3,1.2.9,3.6-.7,4.5a10.6,10.6,0,0,1-3.5,1.2Z" transform="translate(-0.3)"/>
  <g>
    <path d="M156.6,41.4,154,51.8h-1.1l-2.2-7.4-.3-1.2-.3,1.2-2.2,7.4h-1L144,41.4h1.2l1.7,6.8.5,2.3.5-2.3,2-6.8h.9l2.1,6.8.6,2.2.4-2.2,1.6-6.8Z" transform="translate(-0.3)"/>
    <path d="M163.6,44.3a1.8,1.8,0,0,1,.7,1,6,6,0,0,1,.2,1.9v4.6h-1.1V47.1a4.2,4.2,0,0,0-.2-1.3,1.2,1.2,0,0,0-.5-.7l-1-.2-1.2.3-1.1.7v5.8h-1.1V40.5h1.1v4.6l1.3-.8a3.9,3.9,0,0,1,1.6-.4A2.5,2.5,0,0,1,163.6,44.3Z" transform="translate(-0.3)"/>
    <path d="M171.2,44.2a1.7,1.7,0,0,1,.9.7,2.7,2.7,0,0,1,.3,1.4v5.5h-.8l-.2-.2a.8.8,0,0,1-.1-.4v-.3l-1,.6-1.4.2-1.2-.3a2,2,0,0,1-.8-.8,2.2,2.2,0,0,1-.3-1.2,2,2,0,0,1,.4-1.3,2.8,2.8,0,0,1,1.3-.8l1.5-.3h1.6v-.8a1.5,1.5,0,0,0-.2-.8,1,1,0,0,0-.6-.4h-1.9l-.9.2-.6.3-.3-.7.6-.3,1.1-.3h1.2Zm-1.1,6.6.7-.3.4-.3V47.7H170l-1.2.3a2.1,2.1,0,0,0-.9.6,1.3,1.3,0,0,0-.3.9,1.4,1.4,0,0,0,.4,1,1.7,1.7,0,0,0,1.2.4Z" transform="translate(-0.3)"/>
    <path d="M175.3,44.8h-1.1v-.6h.4l.6-.2.2-.2V43l.2-.9h.7V44h2.4v.9h-2.4v4.4a4.5,4.5,0,0,0,.1,1.1.7.7,0,0,0,.3.5h1.4l.7-.3.2.7-.9.4-1.1.2-.9-.2a1.2,1.2,0,0,1-.6-.6,2.5,2.5,0,0,1-.2-1.2Z" transform="translate(-0.3)"/>
    <path d="M181,54.1l.4-.7a3,3,0,0,0,.1-.9,1.9,1.9,0,0,0-.1-.6l-.3-.5-.4-.3v-.3l.7-.7a1.7,1.7,0,0,1,.8.8,2.9,2.9,0,0,1,.3,1.2,4,4,0,0,1-.2,1.4,3.4,3.4,0,0,1-.6,1.1l-.8.6-.4-.5h0Z" transform="translate(-0.3)"/>
    <path d="M189,45.1v-.7l1-.4,1-.5.6-.4.5.2v8.6h-1.2V44.5Z" transform="translate(-0.3)"/>
    <path d="M195.3,44v-.9h6.4l.3.3L198.1,54l-1.2-.4q1.1-2.4,3.9-9.7Z" transform="translate(-0.3)"/>
    <path d="M213.5,44.4a2.8,2.8,0,0,1,1.1,1.2,4.5,4.5,0,0,1,.4,2.1,4.6,4.6,0,0,1-.5,2.1,3.6,3.6,0,0,1-1.4,1.5,3.9,3.9,0,0,1-2,.5l-1.5-.3v3.7h-1.1V44h1v1.1l1-.8a2.9,2.9,0,0,1,1.4-.3A3.1,3.1,0,0,1,213.5,44.4Zm-.2,1.2a2,2,0,0,0-1.6-.7l-1.1.3-.9.6v4.9l.6.3h1a2.5,2.5,0,0,0,1.4-.4,2.6,2.6,0,0,0,.9-1.1,4.1,4.1,0,0,0,.3-1.7A3.3,3.3,0,0,0,213.3,45.6Z" transform="translate(-0.3)"/>
    <path d="M221.1,44v1.2l-.9-.2-1.2.3-.9.6v5.9H217V44h1v1.2l.6-.5.9-.5,1-.2Z" transform="translate(-0.3)"/>
    <path d="M222.5,45.7a3.2,3.2,0,0,1,1.3-1.3,3.6,3.6,0,0,1,1.8-.5,3.3,3.3,0,0,1,1.9.5,3.1,3.1,0,0,1,1.1,1.4,5.2,5.2,0,0,1,.4,2,4.5,4.5,0,0,1-.5,2.1,3.2,3.2,0,0,1-1.3,1.3,3.6,3.6,0,0,1-1.8.5,3.3,3.3,0,0,1-1.9-.5,3.1,3.1,0,0,1-1.1-1.4,5.4,5.4,0,0,1-.4-2A4.4,4.4,0,0,1,222.5,45.7Zm5.1.6a2.4,2.4,0,0,0-.8-1.1,2,2,0,0,0-1.3-.4,2.2,2.2,0,0,0-1.2.4,2.2,2.2,0,0,0-.8,1,4.2,4.2,0,0,0-.3,1.6,4.9,4.9,0,0,0,.2,1.6,2.5,2.5,0,0,0,.8,1.1,1.9,1.9,0,0,0,1.3.4,2.1,2.1,0,0,0,1.3-.4,2.3,2.3,0,0,0,.8-1.1,4.4,4.4,0,0,0,.3-1.6A4.7,4.7,0,0,0,227.6,46.3Z" transform="translate(-0.3)"/>
    <path d="M236,44.4a2.8,2.8,0,0,1,1.1,1.2,4.5,4.5,0,0,1,.4,2.1,4.6,4.6,0,0,1-.5,2.1,3.6,3.6,0,0,1-1.4,1.5,3.9,3.9,0,0,1-2,.5l-1.5-.3v3.7H231V44h1v1.1l1-.8a2.9,2.9,0,0,1,1.4-.3A3.1,3.1,0,0,1,236,44.4Zm-.2,1.2a2,2,0,0,0-1.6-.7l-1.1.3-.9.6v4.9l.6.3h1a2.5,2.5,0,0,0,1.4-.4,2.6,2.6,0,0,0,.9-1.1,4.1,4.1,0,0,0,.3-1.7A3.3,3.3,0,0,0,235.8,45.6Z" transform="translate(-0.3)"/>
    <path d="M239.8,50.6l.8.2h.9a2.3,2.3,0,0,0,1.2-.3,1,1,0,0,0,.5-.9.9.9,0,0,0-.3-.6l-.6-.4-1-.4a5.2,5.2,0,0,1-1.6-1,1.8,1.8,0,0,1-.6-1.4,1.6,1.6,0,0,1,.4-1.1,2.2,2.2,0,0,1,1-.7l1.4-.2h1.2l.8.3-.2.9L243,45l-1.1-.2a2.3,2.3,0,0,0-1.3.3.9.9,0,0,0-.4.8,1,1,0,0,0,.2.6l.6.5.9.4,1.2.5.9.7a1.6,1.6,0,0,1,.4,1,1.9,1.9,0,0,1-.3,1.1,2,2,0,0,1-.9.7l-1.4.2-1.4-.2-1.1-.4.2-.8Z" transform="translate(-0.3)"/>
    <path d="M247.2,45.8l.5-.5.8-.6.8-.6.5-.5a1.3,1.3,0,0,0,.3-.6,3,3,0,0,0,.1-.6,2.1,2.1,0,0,0-.4-1.2,2.3,2.3,0,0,0-1.1-.8,4.5,4.5,0,0,0-1.7-.3h-1.3v-.8l.6-.2h.9a5.2,5.2,0,0,1,2.3.4,3,3,0,0,1,1.3,1.2,3.1,3.1,0,0,1,.4,1.6,4.1,4.1,0,0,1,0,.6,2.1,2.1,0,0,1-.3,1l-.6.7-.9.6-.7.5-.4.4a.9.9,0,0,0-.2.5v.2a2.8,2.8,0,0,0,.1.7l.3.9h-.8a3.3,3.3,0,0,1-.4-.9,3.5,3.5,0,0,1-.2-1.1A1.1,1.1,0,0,1,247.2,45.8Zm.5,4.7.3-.3h.4a.7.7,0,0,1,.6.2.9.9,0,0,1,.2.6,1,1,0,0,1-.1.5l-.3.3h-.4l-.5-.2a.9.9,0,0,1-.2-.6A.9.9,0,0,1,247.8,50.5Z" transform="translate(-0.3)"/>
    <path d="M145,67l1.2.5,1.4.2a3.1,3.1,0,0,0,1.7-.4A1.4,1.4,0,0,0,150,66a1.5,1.5,0,0,0-.3-.9l-.8-.7-1.4-.7q-2.7-1.2-2.7-3.1a2.1,2.1,0,0,1,.5-1.4,2.8,2.8,0,0,1,1.2-.8l1.6-.3,1.5.2,1,.4-.2,1-.9-.5-1.3-.2-1.1.2-.8.5a1.1,1.1,0,0,0-.3.8,1.7,1.7,0,0,0,.3.9l.7.7,1.3.7,1.5.8a3.6,3.6,0,0,1,1,.9,2.1,2.1,0,0,1,.4,1.3,2.5,2.5,0,0,1-.4,1.5,2.6,2.6,0,0,1-1.2.9,4.9,4.9,0,0,1-1.8.3h-1.2l-1.1-.2-.6-.3Z" transform="translate(-0.3)"/>
    <path d="M153.5,64.7V65a2.9,2.9,0,0,0,.7,2.1,2.5,2.5,0,0,0,1.8.7l1.2-.2,1-.4.2.7-1.1.5-1.5.2a3.5,3.5,0,0,1-1.8-.5,2.9,2.9,0,0,1-1.2-1.3,5,5,0,0,1-.4-2.1,4.8,4.8,0,0,1,.4-2,3.2,3.2,0,0,1,1.2-1.4,3.5,3.5,0,0,1,1.9-.5,2.9,2.9,0,0,1,1.4.3,2.5,2.5,0,0,1,1,1,3.1,3.1,0,0,1,.4,1.5c0,.3,0,.5,0,.7v.5Zm.8-2.5a2.9,2.9,0,0,0-.7,1.8h4.1c0-.1,0-.2,0-.3a2.4,2.4,0,0,0-.4-1.5,1.6,1.6,0,0,0-1.4-.6A2.1,2.1,0,0,0,154.3,62.2Z" transform="translate(-0.3)"/>
    <path d="M164.8,60.8v1.2l-.9-.2-1.2.3-.9.6v5.9h-1.1V60.8h1v1.2l.6-.5.9-.5,1-.2Z" transform="translate(-0.3)"/>
    <path d="M166.4,57.9l.3-.3h.4l.5.2a.8.8,0,0,1,.2.6.9.9,0,0,1-.1.5l-.3.3H167l-.5-.2a.8.8,0,0,1-.2-.6A.8.8,0,0,1,166.4,57.9Zm1.2,2.9v7.8h-1.1V60.8Z" transform="translate(-0.3)"/>
    <path d="M170.2,62.5a3.2,3.2,0,0,1,1.3-1.3,3.6,3.6,0,0,1,1.8-.5,3.3,3.3,0,0,1,1.9.5,3.1,3.1,0,0,1,1.1,1.4,5.2,5.2,0,0,1,.4,2,4.5,4.5,0,0,1-.5,2.1,3.2,3.2,0,0,1-1.3,1.3,3.6,3.6,0,0,1-1.8.5,3.3,3.3,0,0,1-1.9-.5,3.1,3.1,0,0,1-1.1-1.4,5.4,5.4,0,0,1-.4-2A4.4,4.4,0,0,1,170.2,62.5Zm5.1.6a2.4,2.4,0,0,0-.8-1.1,2,2,0,0,0-1.3-.4,2.2,2.2,0,0,0-1.2.4,2.2,2.2,0,0,0-.8,1,4.2,4.2,0,0,0-.3,1.6,4.9,4.9,0,0,0,.2,1.6,2.5,2.5,0,0,0,.8,1.1,1.9,1.9,0,0,0,1.3.4,2.1,2.1,0,0,0,1.3-.4,2.3,2.3,0,0,0,.8-1.1,4.4,4.4,0,0,0,.3-1.6A4.7,4.7,0,0,0,175.3,63.1Z" transform="translate(-0.3)"/>
    <path d="M184.7,60.8v7.8h-.9a.4.4,0,0,1-.1-.4v-.4l-1.3.6-1.4.3a2.3,2.3,0,0,1-1.5-.4,1.9,1.9,0,0,1-.7-1.1,8,8,0,0,1-.2-1.8V60.8h1.1v4.6a5.4,5.4,0,0,0,.1,1.5,1.1,1.1,0,0,0,.5.7l1,.2,1.2-.2,1-.5V60.8Z" transform="translate(-0.3)"/>
    <path d="M187.5,67.4l.8.2h.9a2.3,2.3,0,0,0,1.2-.3,1,1,0,0,0,.5-.9.9.9,0,0,0-.3-.6l-.6-.4-1-.4a5.2,5.2,0,0,1-1.6-1,1.8,1.8,0,0,1-.6-1.4,1.6,1.6,0,0,1,.4-1.1,2.2,2.2,0,0,1,1-.7l1.4-.2h1.2l.8.3-.2.9-.7-.3-1.1-.2a2.3,2.3,0,0,0-1.3.3.9.9,0,0,0-.4.8,1,1,0,0,0,.2.6l.6.5.9.4,1.2.5.9.7a1.6,1.6,0,0,1,.4,1,1.9,1.9,0,0,1-.3,1.1,2,2,0,0,1-.9.7l-1.4.2-1.4-.2-1.1-.4.2-.8Z" transform="translate(-0.3)"/>
    <path d="M195.3,57.3V68.6h-1.1V57.3Z" transform="translate(-0.3)"/>
    <path d="M204.1,60.8l-2.7,8a8.3,8.3,0,0,1-1,2.2,2.4,2.4,0,0,1-1.3,1h-1.5V71h.7q1.5,0,2.1-2.5h-.3l-2.9-7.8h1.2l1.9,5.3.5,1.5.5-1.5,1.6-5.3Z" transform="translate(-0.3)"/>
    <path d="M215.1,61.2a2.8,2.8,0,0,1,1.1,1.2,4.5,4.5,0,0,1,.4,2.1,4.6,4.6,0,0,1-.5,2.1,3.6,3.6,0,0,1-1.4,1.5,3.9,3.9,0,0,1-2,.5l-1.5-.3V72h-1.1V60.8h1v1.1l1-.8a2.9,2.9,0,0,1,1.4-.3A3.1,3.1,0,0,1,215.1,61.2Zm-.2,1.2a2,2,0,0,0-1.6-.7l-1.1.3-.9.6v4.9l.6.3h1a2.5,2.5,0,0,0,1.4-.4,2.6,2.6,0,0,0,.9-1.1,4.1,4.1,0,0,0,.3-1.7A3.3,3.3,0,0,0,214.9,62.4Z" transform="translate(-0.3)"/>
    <path d="M219.2,64.7V65a2.9,2.9,0,0,0,.7,2.1,2.5,2.5,0,0,0,1.8.7l1.2-.2,1-.4.2.7-1.1.5-1.5.2a3.5,3.5,0,0,1-1.8-.5,2.9,2.9,0,0,1-1.2-1.3,5,5,0,0,1-.4-2.1,4.8,4.8,0,0,1,.4-2,3.2,3.2,0,0,1,1.2-1.4,3.5,3.5,0,0,1,1.9-.5,2.9,2.9,0,0,1,1.4.3,2.5,2.5,0,0,1,1,1,3.1,3.1,0,0,1,.4,1.5c0,.3,0,.5,0,.7v.5Zm.8-2.5a2.9,2.9,0,0,0-.7,1.8h4.1c0-.1,0-.2,0-.3a2.4,2.4,0,0,0-.4-1.5,1.6,1.6,0,0,0-1.4-.6A2.1,2.1,0,0,0,219.9,62.2Z" transform="translate(-0.3)"/>
    <path d="M226.2,62.5a3.2,3.2,0,0,1,1.3-1.3,3.6,3.6,0,0,1,1.8-.5,3.3,3.3,0,0,1,1.9.5,3.1,3.1,0,0,1,1.1,1.4,5.2,5.2,0,0,1,.4,2,4.5,4.5,0,0,1-.5,2.1,3.2,3.2,0,0,1-1.3,1.3,3.6,3.6,0,0,1-1.8.5,3.3,3.3,0,0,1-1.9-.5,3.1,3.1,0,0,1-1.1-1.4,5.4,5.4,0,0,1-.4-2A4.4,4.4,0,0,1,226.2,62.5Zm5.1.6a2.4,2.4,0,0,0-.8-1.1,2,2,0,0,0-1.3-.4,2.2,2.2,0,0,0-1.2.4,2.2,2.2,0,0,0-.8,1,4.2,4.2,0,0,0-.3,1.6,4.9,4.9,0,0,0,.2,1.6,2.5,2.5,0,0,0,.8,1.1,1.9,1.9,0,0,0,1.3.4,2.1,2.1,0,0,0,1.3-.4,2.3,2.3,0,0,0,.8-1.1,4.4,4.4,0,0,0,.3-1.6A4.7,4.7,0,0,0,231.3,63.1Z" transform="translate(-0.3)"/>
    <path d="M239.7,61.2a2.8,2.8,0,0,1,1.1,1.2,4.5,4.5,0,0,1,.4,2.1,4.6,4.6,0,0,1-.5,2.1,3.6,3.6,0,0,1-1.4,1.5,3.9,3.9,0,0,1-2,.5l-1.5-.3V72h-1.1V60.8h1v1.1l1-.8a2.9,2.9,0,0,1,1.4-.3A3.1,3.1,0,0,1,239.7,61.2Zm-.2,1.2a2,2,0,0,0-1.6-.7l-1.1.3-.9.6v4.9l.6.3h1a2.5,2.5,0,0,0,1.4-.4,2.6,2.6,0,0,0,.9-1.1,4.1,4.1,0,0,0,.3-1.7A3.3,3.3,0,0,0,239.5,62.4Z" transform="translate(-0.3)"/>
    <path d="M244.5,57.3V68.6h-1.1V57.3Z" transform="translate(-0.3)"/>
    <path d="M247.8,64.7V65a2.9,2.9,0,0,0,.7,2.1,2.5,2.5,0,0,0,1.8.7l1.2-.2,1-.4.2.7-1.1.5-1.5.2a3.5,3.5,0,0,1-1.8-.5,2.9,2.9,0,0,1-1.2-1.3,5,5,0,0,1-.4-2.1,4.8,4.8,0,0,1,.4-2,3.2,3.2,0,0,1,1.2-1.4,3.5,3.5,0,0,1,1.9-.5,2.9,2.9,0,0,1,1.4.3,2.5,2.5,0,0,1,1,1,3.1,3.1,0,0,1,.4,1.5c0,.3,0,.5,0,.7v.5Zm.8-2.5a2.9,2.9,0,0,0-.7,1.8h4.1c0-.1,0-.2,0-.3a2.4,2.4,0,0,0-.4-1.5,1.6,1.6,0,0,0-1.4-.6A2.1,2.1,0,0,0,248.6,62.2Z" transform="translate(-0.3)"/>
    <path d="M255.3,70.9l.4-.7a3,3,0,0,0,.1-.9,1.9,1.9,0,0,0-.1-.6l-.3-.5-.4-.3v-.3l.7-.7a1.7,1.7,0,0,1,.8.8,2.9,2.9,0,0,1,.3,1.2,4,4,0,0,1-.2,1.4,3.4,3.4,0,0,1-.6,1.1l-.8.6-.4-.5h0Z" transform="translate(-0.3)"/>
    <path d="M154.7,77.6l-2.4,7.8h-1.1l-1.6-5.6-.2-1-.2,1-1.6,5.6h-1.1l-2.5-7.8h1.1l1.6,5.3.3,1.2.3-1.2,1.5-5.3H150l1.5,5.3.3,1.2.3-1.2,1.5-5.3Z" transform="translate(-0.3)"/>
    <path d="M156.8,81.5v.3a2.9,2.9,0,0,0,.7,2.1,2.5,2.5,0,0,0,1.8.7l1.2-.2,1-.4.2.7-1.1.5-1.5.2a3.5,3.5,0,0,1-1.8-.5,2.9,2.9,0,0,1-1.2-1.3,5,5,0,0,1-.4-2.1,4.8,4.8,0,0,1,.4-2,3.2,3.2,0,0,1,1.2-1.4,3.5,3.5,0,0,1,1.9-.5,2.9,2.9,0,0,1,1.4.3,2.5,2.5,0,0,1,1,1,3.1,3.1,0,0,1,.4,1.5c0,.3,0,.5,0,.7v.5Zm.8-2.5a2.9,2.9,0,0,0-.7,1.8h4.1c0-.1,0-.2,0-.3a2.4,2.4,0,0,0-.4-1.5,1.6,1.6,0,0,0-1.4-.6A2.1,2.1,0,0,0,157.6,79Z" transform="translate(-0.3)"/>
    <path d="M173.9,77.9a1.8,1.8,0,0,1,.7,1,6,6,0,0,1,.2,1.9v4.6h-1.1V80.7a4.2,4.2,0,0,0-.2-1.3,1.2,1.2,0,0,0-.5-.7l-1-.2-1.2.3-1.1.7v5.8h-1.1V74.1h1.1v4.6l1.3-.8a3.9,3.9,0,0,1,1.6-.4A2.5,2.5,0,0,1,173.9,77.9Z" transform="translate(-0.3)"/>
    <path d="M181.5,77.8a1.7,1.7,0,0,1,.9.7,2.7,2.7,0,0,1,.3,1.4v5.5h-.8l-.2-.2a.8.8,0,0,1-.1-.4v-.3l-1,.6-1.4.2-1.2-.3a2,2,0,0,1-.8-.8,2.2,2.2,0,0,1-.3-1.2,2,2,0,0,1,.4-1.3,2.8,2.8,0,0,1,1.3-.8l1.5-.3h1.6v-.8a1.5,1.5,0,0,0-.2-.8,1,1,0,0,0-.6-.4h-1.9l-.9.2-.6.3-.3-.7.6-.3,1.1-.3h1.2Zm-1.1,6.6.7-.3.4-.3V81.3h-1.3l-1.2.3a2.1,2.1,0,0,0-.9.6,1.3,1.3,0,0,0-.3.9,1.4,1.4,0,0,0,.4,1,1.7,1.7,0,0,0,1.2.4Z" transform="translate(-0.3)"/>
    <path d="M191.3,77.6l-3,7.8h-1l-3.1-7.8h1.2l1.8,4.8.6,1.9.6-1.9,1.7-4.8Z" transform="translate(-0.3)"/>
    <path d="M193.4,81.5v.3a2.9,2.9,0,0,0,.7,2.1,2.5,2.5,0,0,0,1.8.7l1.2-.2,1-.4.2.7-1.1.5-1.5.2a3.5,3.5,0,0,1-1.8-.5,2.9,2.9,0,0,1-1.2-1.3,5,5,0,0,1-.4-2.1,4.8,4.8,0,0,1,.4-2,3.2,3.2,0,0,1,1.2-1.4,3.5,3.5,0,0,1,1.9-.5,2.9,2.9,0,0,1,1.4.3,2.5,2.5,0,0,1,1,1,3.1,3.1,0,0,1,.4,1.5c0,.3,0,.5,0,.7v.5Zm.8-2.5a2.9,2.9,0,0,0-.7,1.8h4.1c0-.1,0-.2,0-.3a2.4,2.4,0,0,0-.4-1.5,1.6,1.6,0,0,0-1.4-.6A2.1,2.1,0,0,0,194.2,79Z" transform="translate(-0.3)"/>
    <path d="M201.6,77.6v1.2L203,78a3.6,3.6,0,0,1,1.6-.4,2.5,2.5,0,0,1,1.3.3,1.7,1.7,0,0,1,.7,1,5.8,5.8,0,0,1,.2,1.8v4.8h-1.1V80.6a4.4,4.4,0,0,0-.1-1.2,1.1,1.1,0,0,0-.5-.7l-1-.2-1.2.3-1.1.7v5.8h-1.1V77.6Z" transform="translate(-0.3)"/>
    <path d="M208.9,78.3l.3-.5.3-.8a3.7,3.7,0,0,0,.1-.9,2.5,2.5,0,0,0-.1-.7l-.3-.6-.4-.4v-.3l.7-.6a1.6,1.6,0,0,1,.8.8,3,3,0,0,1,.3,1.4,4.6,4.6,0,0,1-.2,1.4,3.9,3.9,0,0,1-.5,1.1l-.6.6-.5-.3Z" transform="translate(-0.3)"/>
    <path d="M213.1,78.4H212v-.6h.4l.6-.2.2-.2v-.7l.2-.9h.7v1.9h2.4v.9h-2.4v4.4a4.5,4.5,0,0,0,.1,1.1.7.7,0,0,0,.3.5h1.4l.7-.3.2.7-.9.4-1.1.2-.9-.2a1.2,1.2,0,0,1-.6-.6,2.5,2.5,0,0,1-.2-1.2Z" transform="translate(-0.3)"/>
    <path d="M146.4,90.9v11.3h-1.1V90.9Z" transform="translate(-0.3)"/>
    <path d="M149.7,98.3v.3a2.9,2.9,0,0,0,.7,2.1,2.5,2.5,0,0,0,1.8.7l1.2-.2,1-.4.2.7-1.1.5-1.5.2a3.5,3.5,0,0,1-1.8-.5,2.9,2.9,0,0,1-1.2-1.3,5,5,0,0,1-.4-2.1,4.8,4.8,0,0,1,.4-2,3.2,3.2,0,0,1,1.2-1.4,3.5,3.5,0,0,1,1.9-.5,2.9,2.9,0,0,1,1.4.3,2.5,2.5,0,0,1,1,1,3.1,3.1,0,0,1,.4,1.5c0,.3,0,.5,0,.7v.5Zm.8-2.5a2.9,2.9,0,0,0-.7,1.8h4.1c0-.1,0-.2,0-.3a2.4,2.4,0,0,0-.4-1.5,1.6,1.6,0,0,0-1.4-.6A2.1,2.1,0,0,0,150.5,95.8Z" transform="translate(-0.3)"/>
    <path d="M163.7,95.3h-1.6a2.5,2.5,0,0,1,.5,1.5,2.5,2.5,0,0,1-1.5,2.4,3.8,3.8,0,0,1-1.6.3h-1.1l-.4.4a1.2,1.2,0,0,0-.2.6,1.1,1.1,0,0,0,.1.5l.3.3h2.4a3.2,3.2,0,0,1,2.1.5,1.8,1.8,0,0,1,.6,1.4,1.9,1.9,0,0,1-.5,1.3,3.2,3.2,0,0,1-1.4.9,5.6,5.6,0,0,1-1.9.3,4.7,4.7,0,0,1-2.4-.5,1.8,1.8,0,0,1-.9-1.6,1.5,1.5,0,0,1,.3-1l.8-.7a1.1,1.1,0,0,1-.5-.5,1.6,1.6,0,0,1-.1-.7,1.7,1.7,0,0,1,.3-.9,2.6,2.6,0,0,1,.7-.8,2.5,2.5,0,0,1-.9-.9,2.3,2.3,0,0,1-.3-1.2,2.5,2.5,0,0,1,.4-1.5,2.4,2.4,0,0,1,1.1-.9,4.2,4.2,0,0,1,1.6-.3,3.9,3.9,0,0,1,1.8.4l.7-.3h1.5Zm-5.6,6.8a1.5,1.5,0,0,0-.6,1.2,1.3,1.3,0,0,0,.5,1.2,3,3,0,0,0,1.7.4l1.3-.2,1-.5a1,1,0,0,0,.4-.8,1.2,1.2,0,0,0-.2-.7l-.6-.4h-3.4Zm2.8-3.8a1.7,1.7,0,0,0,.5-1.4,1.7,1.7,0,0,0-.5-1.3,1.9,1.9,0,0,0-1.3-.4,2.3,2.3,0,0,0-1.4.4,1.6,1.6,0,0,0-.5,1.4,1.9,1.9,0,0,0,.2.9,1.6,1.6,0,0,0,.6.6l1,.2A2.1,2.1,0,0,0,161,98.3Z" transform="translate(-0.3)"/>
    <path d="M169.3,94.6a1.7,1.7,0,0,1,.9.7,2.7,2.7,0,0,1,.3,1.4v5.5h-.8l-.2-.2a.8.8,0,0,1-.1-.4v-.3l-1,.6-1.4.2-1.2-.3a2,2,0,0,1-.8-.8,2.2,2.2,0,0,1-.3-1.2,2,2,0,0,1,.4-1.3,2.8,2.8,0,0,1,1.3-.8l1.5-.3h1.6v-.8a1.5,1.5,0,0,0-.2-.8,1,1,0,0,0-.6-.4h-1.9l-.9.2-.6.3-.3-.7.6-.3,1.1-.3h1.2Zm-1.1,6.6.7-.3.4-.3V98.1h-1.3l-1.2.3a2.1,2.1,0,0,0-.9.6,1.3,1.3,0,0,0-.3.9,1.4,1.4,0,0,0,.4,1,1.7,1.7,0,0,0,1.2.4Z" transform="translate(-0.3)"/>
    <path d="M174.4,90.9v11.3h-1.1V90.9Z" transform="translate(-0.3)"/>
    <path d="M177.2,91.5l.3-.3h.4l.5.2a.8.8,0,0,1,.2.6.9.9,0,0,1-.1.5l-.3.3h-.4l-.5-.2a.8.8,0,0,1-.2-.6A.8.8,0,0,1,177.2,91.5Zm1.2,2.9v7.8h-1.1V94.4Z" transform="translate(-0.3)"/>
    <path d="M185,95.3h-4.2v-.9h5.6l.2.5-4.1,5.8-.5.7h4.5v.8h-5.8l-.2-.4Z" transform="translate(-0.3)"/>
    <path d="M189,98.3v.3a2.9,2.9,0,0,0,.7,2.1,2.5,2.5,0,0,0,1.8.7l1.2-.2,1-.4.2.7-1.1.5-1.5.2a3.5,3.5,0,0,1-1.8-.5,2.9,2.9,0,0,1-1.2-1.3,5,5,0,0,1-.4-2.1,4.8,4.8,0,0,1,.4-2,3.2,3.2,0,0,1,1.2-1.4,3.5,3.5,0,0,1,1.9-.5,2.9,2.9,0,0,1,1.4.3,2.5,2.5,0,0,1,1,1,3.1,3.1,0,0,1,.4,1.5c0,.3,0,.5,0,.7v.5Zm.8-2.5a2.9,2.9,0,0,0-.7,1.8h4.1c0-.1,0-.2,0-.3a2.4,2.4,0,0,0-.4-1.5,1.6,1.6,0,0,0-1.4-.6A2.1,2.1,0,0,0,189.8,95.8Z" transform="translate(-0.3)"/>
    <path d="M202.1,90.9v11.3h-.9c-.1-.1-.1-.2-.1-.4v-.5l-1,.7a3.2,3.2,0,0,1-1.4.3,3.1,3.1,0,0,1-1.5-.4,2.8,2.8,0,0,1-1.1-1.2,4.4,4.4,0,0,1-.4-2,4.6,4.6,0,0,1,.5-2.1,3.6,3.6,0,0,1,1.4-1.5,3.9,3.9,0,0,1,2-.5l1.5.3V90.9Zm-4.8,9.7a2,2,0,0,0,1.7.7l1.1-.2.9-.5v-5l-.6-.3h-1a2.5,2.5,0,0,0-1.3.4,2.6,2.6,0,0,0-.9,1.1,4,4,0,0,0-.4,1.7A3.4,3.4,0,0,0,197.3,100.6Z" transform="translate(-0.3)"/>
    <path d="M215.1,94.4l-2.7,8a8.3,8.3,0,0,1-1,2.2,2.4,2.4,0,0,1-1.3,1h-1.5v-.9h.7q1.5,0,2.1-2.5h-.3l-2.9-7.8h1.2l1.9,5.3.5,1.5.5-1.5,1.6-5.3Z" transform="translate(-0.3)"/>
    <path d="M217.2,98.3v.3a2.9,2.9,0,0,0,.7,2.1,2.5,2.5,0,0,0,1.8.7l1.2-.2,1-.4.2.7-1.1.5-1.5.2a3.5,3.5,0,0,1-1.8-.5,2.9,2.9,0,0,1-1.2-1.3,5,5,0,0,1-.4-2.1,4.8,4.8,0,0,1,.4-2,3.2,3.2,0,0,1,1.2-1.4,3.5,3.5,0,0,1,1.9-.5,2.9,2.9,0,0,1,1.4.3,2.5,2.5,0,0,1,1,1,3.1,3.1,0,0,1,.4,1.5c0,.3,0,.5,0,.7v.5Zm.8-2.5a2.9,2.9,0,0,0-.7,1.8h4.1c0-.1,0-.2,0-.3a2.4,2.4,0,0,0-.4-1.5,1.6,1.6,0,0,0-1.4-.6A2.1,2.1,0,0,0,218,95.8Z" transform="translate(-0.3)"/>
    <path d="M224.8,95.2h-1.1v-.6h.4l.6-.2.2-.2v-.7l.2-.9h.7v1.9h2.4v.9h-2.4v4.4a4.5,4.5,0,0,0,.1,1.1.7.7,0,0,0,.3.5h1.4l.7-.3.2.7-.9.4-1.1.2-.9-.2a1.2,1.2,0,0,1-.6-.6,2.5,2.5,0,0,1-.2-1.2Z" transform="translate(-0.3)"/>
    <path d="M230.3,100.8l.3-.3h.4a.7.7,0,0,1,.6.3,1,1,0,0,1,.2.6,1,1,0,0,1-.1.5l-.3.3h-.8l-.3-.3a.9.9,0,0,1-.1-.4A1,1,0,0,1,230.3,100.8Z" transform="translate(-0.3)"/>
  </g>
</svg>
