<svg xmlns="http://www.w3.org/2000/svg" xmlns:xlink="http://www.w3.org/1999/xlink" version="1.1" x="0px" y="0px" viewBox="0 0 100 100" enable-background="new 0 0 100 100" xml:space="preserve"><path d="M87.977,49.279c0,20.469-16.592,37.061-37.061,37.061c-20.468,0-37.061-16.592-37.061-37.061  c0-20.469,16.593-37.062,37.061-37.062C71.385,12.216,87.977,28.81,87.977,49.279L87.977,49.279z M27.968,34.83l1.86,4.164  l3.407-2.967l-2.534-3.756L27.968,34.83z M58.242,25.738l-3.414,4.498l4.656,5.275l4.812-8.533L58.242,25.738z M75.785,43.732  l-4.967,1.707l2.793,4.963L75.785,43.732 M59.68,57.102l-1.85,3.961l3.486,1.287v-3.746L59.68,57.102 M45.526,42.171l-2.871,4.932  l2.367,1.561l2.972-2.164v-4.027L45.526,42.171 M23.882,52.252l-3.471,2.68l3.454,3.584l1.879-2.324L23.882,52.252 M33.888,59.68  l-1.79,4.023l3.004,1.551l0.405-2.588L33.888,59.68 M44.49,29.06l-2.808,3.529l2.241,0.969l1.312-1.254l0.583-2.475L44.49,29.06   M75.418,62.287l-2.566,3.021l2.363,2.641l1.562-0.797l-0.207-2.004L75.418,62.287 M45.693,17.343l0.279,4.002l2.84-1.584v-2.486  h-3.119V17.343z M47.57,56.375l-1.354,1.922l1.462,1.719l1.679-1.607l-0.595-1.73L47.57,56.375 M39.988,72.193l-1.726,2.725  l2.122,2.426l2.778-1.576l-0.758-2.871L39.988,72.193 M75.895,28.861l-2.879,2.381l1.785,3.273l1.789-2.381L75.895,28.861   M55.324,72.723l0.4,3.686l6.08,3.189l3.59-3.389l-2.594-6.178L55.324,72.723"></path></svg>