<?xml version="1.0" encoding="utf-8"?>
<!-- Generator: Adobe Illustrator 20.1.0, SVG Export Plug-In . SVG Version: 6.00 Build 0)  -->
<svg version="1.1" id="Layer_1" xmlns="http://www.w3.org/2000/svg" xmlns:xlink="http://www.w3.org/1999/xlink" x="0px" y="0px"
	 viewBox="0 0 100 100" style="enable-background:new 0 0 100 100;" xml:space="preserve">
<path d="M88,49.3c0,20.5-16.6,37.1-37.1,37.1c-20.5,0-37.1-16.6-37.1-37.1s16.6-37.1,37.1-37.1C71.4,12.2,88,28.8,88,49.3L88,49.3z
	 M28,34.8l1.9,4.2l3.4-3l-2.5-3.8L28,34.8z M58.2,25.7l-3.4,4.5l4.7,5.3l4.8-8.5L58.2,25.7z M75.8,43.7l-5,1.7l2.8,5L75.8,43.7
	 M59.7,57.1l-1.8,4l3.5,1.3v-3.7L59.7,57.1 M45.5,42.2l-2.9,4.9l2.4,1.6l3-2.2v-4L45.5,42.2 M23.9,52.3l-3.5,2.7l3.5,3.6l1.9-2.3
	L23.9,52.3 M33.9,59.7l-1.8,4l3,1.6l0.4-2.6L33.9,59.7 M44.5,29.1l-2.8,3.5l2.2,1l1.3-1.3l0.6-2.5L44.5,29.1 M75.4,62.3l-2.6,3
	l2.4,2.6l1.6-0.8l-0.2-2L75.4,62.3 M45.7,17.3l0.3,4l2.8-1.6v-2.5L45.7,17.3L45.7,17.3z M47.6,56.4l-1.4,1.9l1.5,1.7l1.7-1.6
	l-0.6-1.7L47.6,56.4 M40,72.2l-1.7,2.7l2.1,2.4l2.8-1.6l-0.8-2.9L40,72.2 M75.9,28.9L73,31.2l1.8,3.3l1.8-2.4L75.9,28.9 M55.3,72.7
	l0.4,3.7l6.1,3.2l3.6-3.4L62.8,70L55.3,72.7"/>
</svg>
