<?xml version="1.0" encoding="utf-8"?>
<!-- Generator: Adobe Illustrator 20.1.0, SVG Export Plug-In . SVG Version: 6.00 Build 0)  -->
<svg version="1.1" id="Layer_1" xmlns="http://www.w3.org/2000/svg" xmlns:xlink="http://www.w3.org/1999/xlink" x="0px" y="0px"
	 viewBox="0 0 100 100" style="enable-background:new 0 0 100 100;" xml:space="preserve">
<path d="M54.9,12.4L54.9,12.4l-1.2,11.9h-4.3L48,32.3l-6.3,2.2h-3.4l-1.8,6.3l-9.8,2.9l-3.6-7.1l-7.4,1.3c-1.1,3.6-1.8,7.4-1.8,11.3
	c0,20.5,16.6,37.1,37.1,37.1C71.4,86.3,88,69.7,88,49.3C88,30.2,73.5,14.4,54.9,12.4z M23.9,58.5l-3.5-3.6l3.5-2.7l1.9,3.9
	L23.9,58.5z M35.1,65.3l-3-1.6l1.8-4l1.6,3L35.1,65.3z M40.4,77.3l-2.1-2.4l1.7-2.7l2.4,0.7l0.8,2.9L40.4,77.3z M42.7,47.1l2.9-4.9
	l2.5,0.3v4l-3,2.2L42.7,47.1z M47.7,60l-1.5-1.7l1.4-1.9l1.2,0.3l0.6,1.7L47.7,60z M75.9,28.9l0.7,3.3l-1.8,2.4L73,31.2L75.9,28.9z
	 M58.2,25.7l6.1,1.2l-4.8,8.5l-4.7-5.3L58.2,25.7z M61.3,58.6v3.7l-3.5-1.3l1.8-4L61.3,58.6z M61.8,79.6l-6.1-3.2l-0.4-3.7l7.5-2.7
	l2.6,6.2L61.8,79.6z M75.8,43.7l-2.2,6.7l-2.8-5L75.8,43.7z M75.2,67.9l-2.4-2.6l2.6-3l1.2,2.9l0.2,2L75.2,67.9z"/>
</svg>
