<svg xmlns="http://www.w3.org/2000/svg" xmlns:xlink="http://www.w3.org/1999/xlink" version="1.1" x="0px" y="0px" viewBox="0 0 100 100" enable-background="new 0 0 100 100" xml:space="preserve"><g><path d="M12.14,41.232h13.098c0.264-5.594-1.361-11.135-4.625-15.693c-0.758-1.07-2.24-1.309-3.301-0.541   c-0.22,0.146-0.401,0.339-0.557,0.541C13.494,30.097,11.875,35.638,12.14,41.232z"></path></g><g><path d="M27.185,75.145l-0.047-2.715l-1.27-1.234c-0.33-0.32-0.412-0.832-0.174-1.234l1.215-2.176   c0.084-0.154,0.129-0.328,0.129-0.512l-0.337-17.467c0-0.156-0.047-0.303-0.12-0.447l-1.654-3.117v-2.771H12.451v2.771   l-1.664,3.117c-0.072,0.145-0.119,0.291-0.119,0.447l-0.328,17.467c-0.01,0.184,0.035,0.357,0.126,0.512l1.218,2.176   c0.229,0.402,0.153,0.914-0.184,1.234l-1.271,1.234l-0.045,2.715c-0.01,0.557,0.43,1.021,0.988,1.021c0.026,0,14.998,0,14.998,0   C26.728,76.166,27.185,75.721,27.185,75.145z"></path></g><g><path d="M33.181,41.232h13.098c0.274-5.594-1.361-11.135-4.624-15.693c-0.759-1.07-2.239-1.309-3.299-0.541   c-0.211,0.146-0.394,0.339-0.55,0.541C34.542,30.097,32.917,35.638,33.181,41.232z"></path></g><g><path d="M48.236,75.145l-0.054-2.715l-1.271-1.234c-0.328-0.32-0.403-0.832-0.175-1.234l1.227-2.176   c0.082-0.154,0.127-0.328,0.127-0.512l-0.338-17.467c-0.009-0.156-0.047-0.303-0.119-0.447l-1.654-3.117v-2.771H33.492v2.771   l-1.654,3.117c-0.073,0.145-0.12,0.291-0.12,0.447L31.38,67.273c0,0.184,0.037,0.357,0.129,0.512l1.225,2.176   c0.219,0.402,0.146,0.914-0.184,1.234l-1.27,1.234l-0.056,2.715c-0.011,0.557,0.438,1.021,1.007,1.021c0.008,0,14.989,0,14.989,0   C47.779,76.166,48.236,75.721,48.236,75.145z"></path></g><g><path d="M54.232,41.232H67.32c0.273-5.594-1.352-11.135-4.615-15.693c-0.758-1.07-2.24-1.309-3.299-0.541   c-0.221,0.146-0.402,0.339-0.559,0.541C55.586,30.097,53.959,35.638,54.232,41.232z"></path></g><g><path d="M69.277,75.145l-0.045-2.715l-1.271-1.234c-0.338-0.32-0.412-0.832-0.184-1.234l1.227-2.176   c0.082-0.154,0.137-0.328,0.127-0.512l-0.336-17.467c0-0.156-0.037-0.303-0.121-0.447l-1.654-3.117v-2.771H54.543v2.771   l-1.654,3.117c-0.082,0.145-0.127,0.291-0.127,0.447l-0.33,17.467c-0.01,0.184,0.035,0.357,0.127,0.512l1.217,2.176   c0.229,0.402,0.146,0.914-0.174,1.234l-1.279,1.234l-0.047,2.715c-0.018,0.557,0.43,1.021,0.998,1.021c0.018,0,14.988,0,14.988,0   C68.83,76.166,69.277,75.721,69.277,75.145z"></path></g><g><path d="M75.283,41.232h13.088c0.275-5.594-1.361-11.135-4.623-15.693c-0.76-1.07-2.24-1.309-3.299-0.541   c-0.221,0.146-0.404,0.339-0.561,0.541C76.635,30.097,75.01,35.638,75.283,41.232z"></path></g><g><path d="M90.328,75.145l-0.053-2.715l-1.271-1.234c-0.328-0.32-0.404-0.832-0.176-1.234l1.219-2.176   c0.08-0.154,0.135-0.328,0.135-0.512l-0.346-17.467c0-0.156-0.037-0.303-0.111-0.447l-1.664-3.117v-2.771H75.584v2.771   l-1.654,3.117c-0.072,0.145-0.119,0.291-0.119,0.447l-0.338,17.467c0,0.184,0.037,0.357,0.129,0.512l1.225,2.176   c0.219,0.402,0.146,0.914-0.184,1.234l-1.27,1.234l-0.055,2.715c-0.012,0.557,0.438,1.021,1.006,1.021c0.008,0,14.979,0,14.979,0   C89.871,76.166,90.328,75.721,90.328,75.145z"></path></g></svg>