<svg id="Layer_1" data-name="Layer 1" xmlns="http://www.w3.org/2000/svg" viewBox="0 0 280 111.7">
  <defs>
    <style>
      .cls-1 {
        fill: #fff;
        stroke: #000;
        stroke-miterlimit: 10;
        stroke-width: 5px;
      }
    </style>
  </defs>
  <title>approved</title>
  <rect class="cls-1" x="2.5" y="2.5" width="275" height="106.67" rx="12" ry="12"/>
  <g>
    <path d="M23.1,139.9l12.7-34.1h7.6l12.7,34.1H46.2l-2.1-6.7H35.1l-2,6.7Zm16.5-24.3L36.5,127h6.2Z" transform="translate(-10 -72.2)"/>
    <path d="M58.6,139.9V105.8H73.3a10.4,10.4,0,0,1,4.6,1,12,12,0,0,1,3.6,2.7,12.6,12.6,0,0,1,2.4,3.8,11.4,11.4,0,0,1,.9,4.3,12.5,12.5,0,0,1-3.1,8.2,10.9,10.9,0,0,1-3.6,2.6,10.6,10.6,0,0,1-4.6,1H68v10.5ZM68,121.2h4.9a2.2,2.2,0,0,0,1.6-.8,4.2,4.2,0,0,0,.7-2.9,3.8,3.8,0,0,0-.9-2.9,2.6,2.6,0,0,0-1.7-.8H68Z" transform="translate(-10 -72.2)"/>
    <path d="M88.4,139.9V105.8h14.7a10.4,10.4,0,0,1,4.6,1,12,12,0,0,1,3.6,2.7,12.6,12.6,0,0,1,2.4,3.8,11.4,11.4,0,0,1,.9,4.3,12.5,12.5,0,0,1-3.1,8.2,10.9,10.9,0,0,1-3.6,2.6,10.6,10.6,0,0,1-4.6,1H97.8v10.5Zm9.4-18.6h4.9a2.2,2.2,0,0,0,1.6-.8,4.2,4.2,0,0,0,.7-2.9,3.8,3.8,0,0,0-.9-2.9,2.6,2.6,0,0,0-1.7-.8H97.8Z" transform="translate(-10 -72.2)"/>
    <path d="M118.2,139.9V105.8h15.6a10.4,10.4,0,0,1,4.6,1,12,12,0,0,1,3.6,2.7,12.6,12.6,0,0,1,2.4,3.8,11.4,11.4,0,0,1,.9,4.3,12.1,12.1,0,0,1-1.3,5.5,11.3,11.3,0,0,1-3.6,4.2l7.7,12.5H137.5L131,129.4h-3.5v10.5Zm9.4-18.6h5.9a2.1,2.1,0,0,0,1.6-1,4.3,4.3,0,0,0,.7-2.7,3.9,3.9,0,0,0-.9-2.7,2.4,2.4,0,0,0-1.7-.9h-5.7Z" transform="translate(-10 -72.2)"/>
    <path d="M165,140.2a14.7,14.7,0,0,1-6.6-1.5,16.6,16.6,0,0,1-5.1-3.9,17.8,17.8,0,0,1-3.3-5.5,18.1,18.1,0,0,1-1.2-6.4,17.6,17.6,0,0,1,1.2-6.5,17.3,17.3,0,0,1,3.4-5.5,16.9,16.9,0,0,1,5.2-3.8,15.3,15.3,0,0,1,6.6-1.4,14.8,14.8,0,0,1,6.6,1.5,16.4,16.4,0,0,1,5.1,3.9,17.7,17.7,0,0,1,3.3,5.6,18.3,18.3,0,0,1,1.2,6.4,17.4,17.4,0,0,1-1.2,6.5,17.7,17.7,0,0,1-3.4,5.5,16.5,16.5,0,0,1-5.2,3.8A15.2,15.2,0,0,1,165,140.2Zm-6.8-17.3a13.5,13.5,0,0,0,.4,3.3,8.7,8.7,0,0,0,1.3,2.9,6.8,6.8,0,0,0,2.2,2,6.3,6.3,0,0,0,6.1,0,6.5,6.5,0,0,0,2.1-2.1,9.7,9.7,0,0,0,1.2-2.9,13.6,13.6,0,0,0,.4-3.3,12.8,12.8,0,0,0-.4-3.3,9.2,9.2,0,0,0-1.3-2.8,6.5,6.5,0,0,0-2.1-2,6,6,0,0,0-3-.7,5.8,5.8,0,0,0-3,.8,6.6,6.6,0,0,0-2.1,2,9.4,9.4,0,0,0-1.2,2.9A13.3,13.3,0,0,0,158.2,122.9Z" transform="translate(-10 -72.2)"/>
    <path d="M190.7,105.8l6.7,22.3,6.6-22.3h9.8l-12.5,34.1h-7.8l-12.7-34.1Z" transform="translate(-10 -72.2)"/>
    <path d="M240.6,131.7v8.2H216.3V105.8h23.9V114H225.7v4.8h12.4v7.6H225.7v5.4Z" transform="translate(-10 -72.2)"/>
    <path d="M245,139.9V105.8h13.1a19.2,19.2,0,0,1,7.4,1.3,15,15,0,0,1,8.6,9,19.5,19.5,0,0,1,1.1,6.6,19.3,19.3,0,0,1-1.2,7,15.2,15.2,0,0,1-3.5,5.4,15.6,15.6,0,0,1-5.4,3.5,19.4,19.4,0,0,1-7.1,1.2Zm20.8-17.1a11.6,11.6,0,0,0-.5-3.6,8.1,8.1,0,0,0-1.5-2.8,6.8,6.8,0,0,0-2.4-1.8,7.7,7.7,0,0,0-3.2-.6h-3.7v17.8h3.7a7.6,7.6,0,0,0,3.3-.7,6.8,6.8,0,0,0,2.4-1.9,8.2,8.2,0,0,0,1.5-2.8A12,12,0,0,0,265.8,122.8Z" transform="translate(-10 -72.2)"/>
  </g>
</svg>
