<svg xmlns="http://www.w3.org/2000/svg" xmlns:xlink="http://www.w3.org/1999/xlink" version="1.1" x="0px" y="0px" viewBox="0 0 85.271 119.724" enable-background="new 0 0 85.271 119.724" xml:space="preserve"><g><path fill-rule="evenodd" clip-rule="evenodd" d="M55.464,112.683c-14.764,0-29.985,1.999-44.516-1.194   c-0.795-0.175-1.312-0.579-1.641-1.3C4.445,99.52,5.66,82.84,5.482,71.05c-0.233-15.107,0.879-29.616,4.847-44.292   c0.524-0.622,1.08-1.215,1.665-1.779c0.866-1.732,1.764-3.447,2.584-5.204c2.002-4.295,1.235-9.548,5.07-13.274   c0.653-0.633,6.794,2.049,6.973,2.144c0.471,0.251,0.537,0.5,0.393,1.005c-1.537,5.343-6.368,12.459-4.588,18.04   c0.039,0.125,0.143,0.199,0.261,0.255c7.219,3.426,20.632,4.966,28.524,3.578c1.107-0.194,1.955-0.911,2.739-1.643   c0.653-0.609,1.277-1.261,1.613-2.153c0.504-1.34,0.9-2.681,0.93-4.132c0.033-1.625,0.427-9.173-0.493-10.391   c-0.386-0.511-0.769-1.025-1.157-1.534c-0.303-0.397-0.275-0.532,0.183-0.723c1.863-0.776,7.443-2.213,8.557-3.637   c0.56-0.716,1.829-0.25,2.071,0.732c4.116,16.78,4.343,34.165,7.102,51.24c1.449,9,2.6,20.521-0.179,29.322   c-2.077,6.579,6.711,18.622-0.928,23.419C67.863,114.406,59.933,112.519,55.464,112.683   C52.928,112.683,57.51,112.608,55.464,112.683z"></path></g></svg>