<svg xmlns="http://www.w3.org/2000/svg" xmlns:xlink="http://www.w3.org/1999/xlink" version="1.1" x="0px" y="0px" viewBox="0 0 100 100" enable-background="new 0 0 100 100" xml:space="preserve"><path d="M65.324,95c-0.012-0.752-0.703-1.161-0.947-3.027c-0.226-3.535-5.641-8.48-7.051-8.236c-1.41,0.244-1.937,0.32-1.88-0.094  c0.056-0.414,0.658-2.67-2.181-2.52c-2.839,0.15-4.099-0.677-5.265-2.614c-1.166-1.937-2.613-0.32-3.347-1.015  c-0.733-0.696-3.197-0.621-4.945-0.433c-1.749,0.188-1.655-1.617-1.561-2.256c0.094-0.639-0.62-0.714-0.282-2.012  c0.338-1.297,0.244-2.557-0.226-2.576c-0.47-0.019-1.899,0.056-1.279-1.072c0.62-1.128-1.542-2.294-1.88-2.689  c-0.338-0.395-1.774-1.439-2.012-2.501c-0.238-1.062-0.996-0.432-1.354-2.162c-0.357-1.73-2.087-1.128-2.331-2.614  c-0.244-1.485-1.73-2.256,0.225-2.388s0.47-4.456-0.357-4.231c-0.827,0.226-0.734,0.865-2.257-0.47  c-1.523-1.335-0.808-2.012-1.579-4.212c-0.771-2.2-0.677-2.35,0.53-0.861c1.207,1.49,3.644,2.478,2.347,0.673  c-1.297-1.805-2.151-1.72-1.203-4.325c0.948-2.605-2.031-1.617-2.049-0.056c-0.019,1.561-0.921,0.639-2.726-0.62  c-1.805-1.26,0.677-0.621,0.357-1.015c-0.32-0.395-0.884-1.316-1.015-1.88c-0.132-0.564-1.203-1.495-1.203-1.495  c-1.523-1.091,0.602,0.367-2.275-2.661c-2.877-3.027-0.263-1.955-0.884-3.196c-1.241-2.331-0.658-3.479-0.658-3.479  c1.542-2.632-2.238-6.487-3.14-7.258c-0.902-0.771-0.564-1.598-0.733-2.181c-0.169-0.583,1.831-3.922,2.279-5.02  c0.448-1.098-0.415-1.062-0.193-1.391c1.372-2.708,0.497-4.481,0.377-5.434c-0.12-0.953-0.978,0.019-0.697-0.65  C14.209,6.36,14.362,5,14.362,5l29.255,1.24l-0.292,27.92l40.552,37.411c0,0-0.227,1.008,0.065,1.235  c0.292,0.228,0.286,0.836,1.105,1.268c0.819,0.432,0.097,1.398,0.91,2.178c0.812,0.78,1.56,1.203,1.755,1.43  c0.195,0.228,0.325,0.878-0.65,1.463c-0.975,0.585-1.617,0.257-1.365,1.268c0.252,1.01-1.081,0.927-1.081,0.927  s0.594,0.601,0.529,1.543s-0.032,3.392-1.072,3.445c-1.04,0.053-0.293,1.203-0.163,1.3c0.13,0.098,0.331,1.09-0.065,1.755  c-0.396,0.665,0.455,0.65,0.845,0.585c0.39-0.065,0.91,0.032,0.975,0.488c0.065,0.455,0.39,1.528-0.292,1.918  c-0.682,0.39-1.462,0.488-1.462,0.488L65.324,95z"></path></svg>