<svg xmlns="http://www.w3.org/2000/svg" xmlns:xlink="http://www.w3.org/1999/xlink" version="1.1" x="0px" y="0px" viewBox="0 0 100 100" enable-background="new 0 0 100 100" xml:space="preserve"><path d="M95.999,0H4C1.791,0,0,1.792,0,4v92c0,2.21,1.791,4,4,4h91.999c2.21,0,4.001-1.79,4.001-4V4C100,1.792,98.209,0,95.999,0z   M50,94.998C25.147,94.998,5,74.854,5,50C5,25.147,25.147,5,50,5c24.854,0,45,20.147,45,45C95,74.854,74.854,94.998,50,94.998z"></path><path d="M50,9.939C27.911,9.939,9.939,27.911,9.939,50c0,22.09,17.972,40.061,40.061,40.061c22.09,0,40.062-17.971,40.062-40.061  C90.062,27.911,72.09,9.939,50,9.939z M33.325,79.009c-0.237,0.419-0.672,0.651-1.121,0.651c-0.216,0-0.435-0.053-0.636-0.168  c-1.206-0.684-2.385-1.457-3.503-2.288c-0.571-0.425-0.689-1.229-0.264-1.8c0.424-0.573,1.23-0.688,1.801-0.268  c1.034,0.77,2.124,1.482,3.241,2.117C33.46,77.604,33.677,78.393,33.325,79.009z M48.428,18.228  c-17.406,0-31.567,14.161-31.567,31.568c0,7.708,2.808,15.13,7.908,20.9c0.47,0.532,0.421,1.345-0.112,1.816  c-0.245,0.217-0.549,0.325-0.853,0.325c-0.356,0-0.711-0.149-0.966-0.438c-5.515-6.239-8.553-14.268-8.553-22.604  c0-18.827,15.316-34.144,34.143-34.144c0.711,0,1.289,0.577,1.289,1.288C49.717,17.651,49.14,18.228,48.428,18.228z"></path></svg>