<svg xmlns="http://www.w3.org/2000/svg" xmlns:xlink="http://www.w3.org/1999/xlink" version="1.1" x="0px" y="0px" viewBox="0 0 90 90" enable-background="new 0 0 90 90" xml:space="preserve"><path d="M58.33,3.145H31.672c-0.819,0-1.486,0.705-1.486,1.578V8.74h29.629V4.723C59.814,3.85,59.149,3.145,58.33,3.145z"></path><path d="M72.811,68.836v-40.27c-0.832-7.595-7.248-12.24-11.483-14.517c0.599-0.334,1.011-0.967,1.011-1.704  c0-1.08-0.876-1.957-1.957-1.957H29.619c-1.08,0-1.957,0.877-1.957,1.957c0,0.737,0.412,1.37,1.011,1.704  c-4.237,2.276-10.649,6.922-11.485,14.517v40.27c0,0-0.945,14.74,11.041,16.84l-0.007,0.008c0,0,0.103,0.016,0.28,0.043  c0.052,0.006,0.098,0.02,0.152,0.027c0,0,0.025,0.002,0.064,0.004c1.789,0.256,8.309,1.098,16.746,1.098  c4.839,0,10.309-0.277,15.882-1.102C73.791,83.938,72.811,68.836,72.811,68.836z M69.089,75.746  c-1.403,4.277-4.069,6.645-8.153,7.242c-4.803,0.711-10.01,1.07-15.471,1.07c-8.236,0-14.596-0.818-16.347-1.068  c-0.036-0.006-0.071-0.008-0.106-0.014c-0.033-0.006-0.065-0.012-0.096-0.014l-0.044-0.01c-0.051-0.012-0.105-0.021-0.159-0.033  c-9.343-1.639-8.762-13.412-8.732-13.906c0.004-0.059,0.005-0.117,0.005-0.178V28.727c0.737-6.033,5.948-9.95,9.634-12.001h-0.001  c0,0,0.053-0.029,0.151-0.081c0.368-0.202,0.719-0.388,1.049-0.551c0.875-0.448,2.187-1.095,3.74-1.792h20.881  c1.57,0.705,2.891,1.355,3.767,1.805c0.316,0.157,0.652,0.334,1.005,0.525c0.109,0.062,0.17,0.094,0.17,0.094l0,0  c3.688,2.051,8.895,5.968,9.634,12.001v40.109c0,0.061,0.003,0.123,0.008,0.182C70.022,69.049,70.2,72.348,69.089,75.746z"></path></svg>