<svg id="Layer_1" data-name="Layer 1" xmlns="http://www.w3.org/2000/svg" viewBox="0 0 280 111.7">
  <defs>
    <style>
      .cls-1 {
        fill: #fff;
        stroke: #000;
        stroke-miterlimit: 10;
        stroke-width: 5px;
      }
    </style>
  </defs>
  <title>denied</title>
  <rect class="cls-1" x="2.5" y="2.5" width="275" height="106.67" rx="12" ry="12"/>
  <g>
    <path d="M64.2,139.9V105.8H77.3a19.2,19.2,0,0,1,7.4,1.3,15,15,0,0,1,8.6,9,19.5,19.5,0,0,1,1.1,6.6,19.2,19.2,0,0,1-1.2,7,15.2,15.2,0,0,1-3.5,5.4,15.6,15.6,0,0,1-5.4,3.5,19.4,19.4,0,0,1-7.1,1.2Zm20.8-17.1a11.7,11.7,0,0,0-.5-3.6,8.1,8.1,0,0,0-1.5-2.8,6.8,6.8,0,0,0-2.4-1.8,7.8,7.8,0,0,0-3.2-.6H73.5v17.8h3.7a7.6,7.6,0,0,0,3.3-.7,6.8,6.8,0,0,0,2.4-1.9,8.3,8.3,0,0,0,1.5-2.8A12,12,0,0,0,84.9,122.8Z" transform="translate(-10 -72.2)"/>
    <path d="M122.9,131.7v8.2H98.6V105.8h23.9V114H107.9v4.8h12.4v7.6H107.9v5.4Z" transform="translate(-10 -72.2)"/>
    <path d="M136.6,123.1v16.8h-9.4V105.8h7.3l13.7,17.3V105.8h9.4v34.1h-7.4Z" transform="translate(-10 -72.2)"/>
    <path d="M163.4,139.9V105.8h9.4v34.1Z" transform="translate(-10 -72.2)"/>
    <path d="M202.9,131.7v8.2H178.6V105.8h23.9V114H188v4.8h12.4v7.6H188v5.4Z" transform="translate(-10 -72.2)"/>
    <path d="M207.3,139.9V105.8h13.1a19.2,19.2,0,0,1,7.4,1.3,15,15,0,0,1,8.6,9,19.5,19.5,0,0,1,1.1,6.6,19.3,19.3,0,0,1-1.2,7,15.2,15.2,0,0,1-3.5,5.4,15.6,15.6,0,0,1-5.4,3.5,19.4,19.4,0,0,1-7.1,1.2Zm20.8-17.1a11.6,11.6,0,0,0-.5-3.6,8.1,8.1,0,0,0-1.5-2.8,6.8,6.8,0,0,0-2.4-1.8,7.7,7.7,0,0,0-3.2-.6h-3.7v17.8h3.7a7.6,7.6,0,0,0,3.3-.7,6.8,6.8,0,0,0,2.4-1.9,8.2,8.2,0,0,0,1.5-2.8A12,12,0,0,0,228.1,122.8Z" transform="translate(-10 -72.2)"/>
  </g>
</svg>
