<svg xmlns:xlink="http://www.w3.org/1999/xlink" xmlns="http://www.w3.org/2000/svg" stroke-width="0.501" stroke-linejoin="bevel" fill-rule="evenodd" version="1.1" overflow="visible" viewBox="0 0 75 75" x="0px" y="0px"><g fill="none" stroke="black" font-family="Times New Roman" font-size="16" transform="scale(1 -1)"><g transform="translate(0 -75)"><g><path d="M 35.594,13.959 C 35.594,14.972 36.416,15.795 37.43,15.795 C 38.444,15.795 39.267,14.972 39.267,13.959 C 39.267,12.946 38.444,12.123 37.43,12.123 C 36.416,12.123 35.594,12.946 35.594,13.959 Z M 37.248,21.788 C 37.248,23.334 38.504,24.591 40.052,24.591 C 41.599,24.591 42.855,23.334 42.855,21.788 C 42.855,20.242 41.599,18.985 40.052,18.985 C 38.504,18.985 37.248,20.242 37.248,21.788 Z M 34.796,30.379 C 34.796,32.119 36.209,33.532 37.95,33.532 C 39.691,33.532 41.105,32.119 41.105,30.379 C 41.105,28.639 39.691,27.226 37.95,27.226 C 36.209,27.226 34.796,28.639 34.796,30.379 Z M 28.971,31.068 C 28.971,32.427 30.076,33.532 31.436,33.532 C 32.797,33.532 33.901,32.427 33.901,31.068 C 33.901,29.708 32.797,28.604 31.436,28.604 C 30.076,28.604 28.971,29.708 28.971,31.068 Z M 42.855,32.229 C 42.855,33.242 43.678,34.065 44.692,34.065 C 45.705,34.065 46.528,33.242 46.528,32.229 C 46.528,31.216 45.705,30.393 44.692,30.393 C 43.678,30.393 42.855,31.216 42.855,32.229 Z M 20.007,34.491 L 19.948,34.432 L 9.141,45.24 C 5.142,49.238 5.142,55.73 9.141,59.728 L 9.291,59.877 C 13.288,63.876 19.78,63.876 23.78,59.877 L 34.586,49.071 L 34.526,49.011 C 36.042,46.583 34.524,42.012 30.84,38.328 L 30.69,38.178 C 27.006,34.494 22.435,32.975 20.007,34.491 Z M 46.271,36.475 C 45.841,36.263 45.358,36.145 44.847,36.145 C 43.064,36.145 41.616,37.593 41.616,39.375 C 41.616,39.933 41.758,40.459 42.009,40.918 C 39.944,43.963 39.298,47.13 40.473,49.011 L 40.414,49.071 L 51.22,59.877 C 55.22,63.876 61.712,63.876 65.709,59.877 L 65.859,59.728 C 69.858,55.73 69.858,49.238 65.859,45.24 L 55.052,34.432 L 54.992,34.491 C 52.981,33.235 49.5,34.061 46.271,36.475 Z M 31.436,36.536 C 31.436,37.549 32.258,38.372 33.272,38.372 C 34.286,38.372 35.109,37.549 35.109,36.536 C 35.109,35.523 34.286,34.7 33.272,34.7 C 32.258,34.7 31.436,35.523 31.436,36.536 Z M 28.831,39.28 L 29.738,40.187 C 32.26,42.71 33.173,45.893 31.777,47.29 L 31.775,47.291 C 30.379,48.687 27.196,47.774 24.673,45.252 L 23.766,44.345 C 21.244,41.823 20.331,38.64 21.728,37.243 L 21.729,37.242 C 23.126,35.845 26.309,36.758 28.831,39.28 Z M 53.271,37.242 L 53.272,37.243 C 54.669,38.64 53.756,41.823 51.234,44.345 L 50.327,45.252 C 47.804,47.774 44.621,48.687 43.225,47.291 L 43.223,47.29 C 42.206,46.273 42.414,44.309 43.574,42.343 C 43.965,42.511 44.395,42.604 44.847,42.604 C 46.63,42.604 48.077,41.157 48.077,39.375 C 48.077,38.867 47.959,38.387 47.75,37.959 C 49.898,36.484 52.154,36.125 53.271,37.242 Z M 22.664,46.204 L 22.814,46.354 C 25.04,48.58 27.59,50.016 29.795,50.469 L 21.769,58.495 C 18.711,61.553 13.746,61.553 10.688,58.495 L 10.523,58.33 C 7.468,55.275 7.465,50.307 10.523,47.249 L 18.549,39.221 C 19.002,41.427 20.437,43.977 22.664,46.204 Z M 51.663,46.856 L 58.742,53.935 C 59.838,55.03 59.973,56.674 59.045,57.602 L 59.044,57.603 C 58.116,58.531 56.472,58.396 55.376,57.3 L 47.685,49.608 C 49.017,48.969 50.383,48.04 51.663,46.856 Z" fill="#000000" stroke-width="0.75" stroke="none" stroke-linejoin="round" stroke-linecap="round" marker-start="none" marker-end="none" stroke-miterlimit="79.8403193612775"></path></g></g></g></svg>