<svg xmlns="http://www.w3.org/2000/svg" xmlns:xlink="http://www.w3.org/1999/xlink" version="1.1" x="0px" y="0px" viewBox="0 0 90 90" enable-background="new 0 0 90 90" xml:space="preserve"><g><path d="M42.8,58c0.2,0.2,0.3,0.4,0.5,0.5l29,29c3.2,3.3,8.5,3.3,11.8,0c3.2-3.2,3.2-8.5,0-11.8l-29-29c-0.3-0.3-0.6-0.5-0.9-0.7   L42.8,58z"></path><path d="M49.8,45.8L28.1,24.3c-0.2-0.2-0.4-0.3-0.5-0.5c0.2-0.3,0.3-0.6,0.5-0.9c2.9,0.6,8.3-5.1,12.8-9.7L27.6,0   c-5.9,5.9-10.3,9.9-9.7,12.8c-1.4,0.7-2.6,1.5-3.4,2.3L12.6,17c-1.2,1.2-1.9,2.7-2.2,4.3c-0.2,0.2-0.4,0.4-0.5,0.7l-0.7,0.9   c0,0-0.1,0.1-0.1,0.1l-0.6,0.9c-0.4,0.5-0.7,1.1-1.1,1.7C7.3,25.7,7.1,26,7,26.2c0,0,0,0.1-0.1,0.1l-0.3,0.5c-0.3,0.6-0.7,1.3-1,2   l0,0.1c-0.4,0.8-0.7,1.7-1,2.6L4.5,32c-0.1,0.3-0.2,0.7-0.3,1.1L4,34.3c-0.2,0.8-0.3,1.6-0.3,2.3l0,0.5c-0.1,0.7-0.1,1.4,0,2   c0,0.2,0,0.4,0,0.7c0,0.1,0,0.2,0,0.3c0,0.3,0,0.6,0.1,0.9l0.2,1c0,0.2,0.1,0.4,0.1,0.6C4,43,4.1,43.4,4.2,43.8l0.7,2.4   c0.2,0.7,0.9,1.2,1.6,1.1c0.4,0,0.7-0.2,1-0.5c0.2-0.2,0.4-0.5,0.4-0.9l0.4-2.4c0-0.2,0.1-0.5,0.2-0.8c0.1-0.2,0.1-0.4,0.2-0.6   l0.3-0.9c0-0.1,0.1-0.2,0.1-0.4c0-0.1,0.1-0.2,0.1-0.3c0.1-0.2,0.2-0.4,0.2-0.6c0.2-0.4,0.3-0.7,0.5-1.1c0.1-0.2,0.2-0.3,0.3-0.5   c0.2-0.4,0.5-0.8,0.7-1.1c0,0,0,0,0-0.1l0.6-0.8c0.1-0.2,0.3-0.3,0.4-0.4c0.1-0.1,0.2-0.2,0.3-0.3c0.3-0.4,0.8-0.8,1.2-1.1l0.2-0.2   c0.3-0.3,0.6-0.5,1-0.8c0.1-0.1,0.3-0.2,0.4-0.3c0.2-0.1,0.4-0.2,0.5-0.3c0.3-0.2,0.6-0.4,0.9-0.6l0.7-0.4l0.7-0.3   c0.2-0.1,0.5-0.2,0.7-0.3c0.1-0.1,0.3-0.1,0.4-0.2c0.1,0,0.2-0.1,0.4-0.1c0.2-0.1,0.3-0.1,0.5-0.2l0.2,0c0.2,0.3,0.5,0.7,0.7,0.9   l21.7,21.8L49.8,45.8z"></path></g></svg>