<svg xmlns:dc="http://purl.org/dc/elements/1.1/" xmlns:cc="http://creativecommons.org/ns#" xmlns:rdf="http://www.w3.org/1999/02/22-rdf-syntax-ns#" xmlns:svg="http://www.w3.org/2000/svg" xmlns="http://www.w3.org/2000/svg" xmlns:sodipodi="http://sodipodi.sourceforge.net/DTD/sodipodi-0.dtd" xmlns:inkscape="http://www.inkscape.org/namespaces/inkscape" version="1.1" x="0px" y="0px" viewBox="0 0 100 100"><g transform="translate(0,-952.36218)"><path style="opacity:1;color:#000000;fill:#000000;stroke:none;stroke-width:4;marker:none;visibility:visible;display:inline;overflow:visible;enable-background:accumulate" d="M 37 8 C 37 10.69541 38.477492 14.25705 40.78125 17.4375 C 43.908847 16.51028 47.053037 16 50 16 C 52.946963 16 56.091153 16.51028 59.21875 17.4375 C 61.522508 14.25705 63 10.69541 63 8 L 37 8 z M 50 20 C 41.844595 20 31.143085 25.12219 26 31 C 19 39 13 52.5218 13 64 C 13 79.4668 29.5655 92 50 92 C 70.4345 92 87 79.4668 87 64 C 87 52.5218 81 39 74 31 C 68.856915 25.12219 58.155405 20 50 20 z M 49.78125 34.96875 A 2.0002 2.0002 0 0 1 52 37 L 52 39.15625 C 53.822333 39.36911 55.757736 39.8499 57.5 40.8125 C 59.900835 42.13896 62 44.60364 62 47.90625 A 2.0002 2.0002 0 1 1 58 47.90625 C 58 46.18034 57.148281 45.18864 55.5625 44.3125 C 54.5413 43.74829 53.255284 43.38787 52 43.1875 L 52 54.09375 C 54.30111 54.28055 56.43678 54.8155 58.21875 56 C 60.509572 57.5227 62 60.2146 62 63.5 C 62 66.956 60.024962 69.59505 57.625 71.03125 C 55.864332 72.08495 53.886141 72.6475 52 72.875 L 52 75 A 2.0002 2.0002 0 1 1 48 75 L 48 72.875 C 46.177667 72.6531 44.242264 72.11895 42.5 71.15625 C 40.099165 69.82985 38 67.3652 38 64.0625 A 2.0002 2.0002 0 1 1 42 64.0625 C 42 65.7884 42.851719 66.78015 44.4375 67.65625 C 45.45787 68.22005 46.745661 68.6028 48 68.8125 L 48 57.9375 C 45.69889 57.7423 43.563221 57.15325 41.78125 55.96875 C 39.490427 54.44595 38 51.75425 38 48.46875 C 38 45.01284 39.975038 42.37378 42.375 40.9375 C 44.135668 39.88381 46.113859 39.37473 48 39.15625 L 48 37 A 2.0002 2.0002 0 0 1 49.78125 34.96875 z M 48 43.1875 C 46.720931 43.39484 45.439482 43.77535 44.4375 44.375 C 42.901409 45.29429 42 46.39884 42 48.46875 C 42 50.70925 42.676856 51.7663 43.96875 52.625 C 44.90855 53.2496 46.312225 53.6797 48 53.875 L 48 43.1875 z M 52 58.125 L 52 68.8125 C 53.277887 68.5957 54.561454 68.19285 55.5625 67.59375 C 57.098591 66.67445 58 65.5699 58 63.5 C 58 61.2595 57.323146 60.20245 56.03125 59.34375 C 55.091396 58.71905 53.687903 58.3113 52 58.125 z " transform="translate(0,952.36218)"></path></g></svg>