<svg xmlns="http://www.w3.org/2000/svg" xmlns:xlink="http://www.w3.org/1999/xlink" version="1.1" x="0px" y="0px" viewBox="0 0 90 90" style="enable-background:new 0 0 90 90;" xml:space="preserve"><path d="M63.7,71.4c-2.2-1.3-4.5-2.3-6.6-3.2c2.9,0.5,6.1,0.8,9.5,0.8c11.9,0,21.6-4.1,21.6-4.1s-9.7-4.1-21.6-4.1  c-2.9,0-5.6,0.2-8.1,0.6c3-1.1,6.3-2.6,9.6-4.5c11.5-6.6,18.5-16,18.5-16s-11.6,1.4-23.1,8c-2.8,1.6-5.2,3.3-7.5,5.1  c2.3-2.8,4.6-6,6.7-9.6c7.4-12.8,8.9-25.7,8.9-25.7s-10.4,7.8-17.8,20.6c-1.8,3.1-3.2,6.1-4.3,9c0.7-3.9,1.1-8.3,1.1-13  C50.7,18.9,45,5.6,45,5.6s-5.7,13.3-5.7,29.6c0,4.7,0.5,9.1,1.1,13c-1.2-2.9-2.6-6-4.3-9c-7.4-12.8-17.8-20.6-17.8-20.6  s1.5,12.9,8.9,25.7c2.1,3.6,4.4,6.9,6.7,9.6c-2.2-1.7-4.7-3.5-7.5-5.1c-11.5-6.6-23.1-8-23.1-8s7,9.4,18.5,16  c3.3,1.9,6.6,3.4,9.6,4.5c-2.5-0.4-5.2-0.6-8.1-0.6c-11.9,0-21.6,4.1-21.6,4.1s9.7,4.1,21.6,4.1c3.4,0,6.6-0.3,9.5-0.8  c-2.1,0.8-4.3,1.9-6.6,3.2c-9.3,5.4-15,13-15,13s9.4-1.1,18.7-6.5c5.4-3.1,9.6-7,12.1-9.7l-0.3,13.6h6.3l-0.3-13.6  c2.6,2.7,6.7,6.5,12.1,9.7c9.3,5.4,18.7,6.5,18.7,6.5S73,76.8,63.7,71.4z"></path></svg>