<svg xmlns="http://www.w3.org/2000/svg" xmlns:xlink="http://www.w3.org/1999/xlink" version="1.1" x="0px" y="0px" viewBox="0 0 100 100" enable-background="new 0 0 100 100" xml:space="preserve"><g><path d="M66.986,24.431c0-8.94-7.252-16.187-16.188-16.187c-8.934,0-16.188,7.246-16.188,16.187   c0,8.943,7.254,16.188,16.188,16.188C59.734,40.619,66.986,33.374,66.986,24.431L66.986,24.431z"></path></g><path d="M65.453,42.933c14.873,7.052,22.602,23.695,18.412,39.615c-21.053,9.364-45.078,9.364-66.131,0  c-4.189-15.92,3.538-32.563,18.412-39.615C44.733,49.729,56.865,49.729,65.453,42.933z M69.455,63.706v-5.793H32.146v5.793  c1.561,0.736,2.814,1.989,3.546,3.559c1.748,3.7,0.167,8.117-3.546,9.86v1.649h37.309v-1.649c-1.562-0.738-2.816-1.99-3.547-3.561  C64.16,69.865,65.74,65.448,69.455,63.706z M78.779,70.415c0-3.405-2.756-6.167-6.174-6.167c-3.398,0-6.154,2.762-6.154,6.167  s2.756,6.166,6.154,6.166C76.023,76.581,78.779,73.82,78.779,70.415L78.779,70.415z M35.147,70.415c0-3.405-2.74-6.167-6.152-6.167  c-3.419,0-6.173,2.762-6.173,6.167s2.754,6.166,6.173,6.166C32.407,76.581,35.147,73.82,35.147,70.415L35.147,70.415z   M38.486,64.765h24.627v-1.81H38.486V64.765z M38.486,69.894h24.627v-1.811H38.486V69.894z"></path><g><path d="M67.236,13.962h25.625v3.592H69.025C68.557,16.302,67.953,15.095,67.236,13.962z"></path></g><g><path d="M32.574,17.554H8.737v-3.592h25.627C33.647,15.095,33.043,16.302,32.574,17.554z"></path></g><g><path d="M67.711,34.098h25.15v3.593H65.076C66.096,36.598,66.975,35.392,67.711,34.098z"></path></g><g><path d="M36.522,37.69H8.737v-3.593h25.151C34.625,35.392,35.503,36.598,36.522,37.69z"></path></g><g><path d="M82.754,54.233h10.107v3.601h-8.164C84.129,56.6,83.477,55.399,82.754,54.233z"></path></g><g><path d="M16.903,57.834H8.737v-3.601h10.108C18.122,55.399,17.485,56.6,16.903,57.834z"></path></g><g><path d="M88.291,74.369h4.57v3.602h-4.807C88.195,76.771,88.264,75.576,88.291,74.369z"></path></g><g><path d="M13.544,77.971H8.737v-3.602h4.572C13.336,75.576,13.404,76.771,13.544,77.971z"></path></g></svg>