<svg xmlns="http://www.w3.org/2000/svg" xmlns:xlink="http://www.w3.org/1999/xlink" version="1.1" x="0px" y="0px" viewBox="0 0 100 100" style="enable-background:new 0 0 100 100;" xml:space="preserve"><g><path d="M38,6.2c2.9-0.6,5.8-0.8,8.8-0.9c4.2-0.1,8.5,0,12.7,0.5c1.6,0.2,3.3,0.5,4.8,1.2c0.4,0.2,1,0.5,1.1,1c0,2.1,0,4.2,0,6.4   c2.3,0.2,4.5,0.3,6.8,0.6c1.5,0.2,3.1,0.4,4.6,0.8c0.7,0.2,1.3,0.3,2,0.6c0.2,0.1,0.5,0.3,0.6,0.5c0.1,0.2-0.1,0.4-0.3,0.6   c-0.4,0.3-0.9,0.4-1.3,0.6c-1.2,0.4-2.4,0.6-3.7,0.8c-2.4,0.4-4.8,0.6-7.2,0.8c1.6,1.5,2.9,3.3,3.9,5.2c6.5-1.9,13-3.7,19.5-5.6   c-0.7,7.1-1.5,14.2-2.2,21.3c1,0.8,1.8,1.9,2.3,3.1c0.8,1.8,1.2,3.7,1.3,5.7c0.1,2-0.1,4-0.5,6c-0.5,2.5-1.5,5.1-3.2,7.1   c-0.7,0.8-1.5,1.5-2.4,1.9c-0.6,6-1.2,11.9-1.9,17.9c-13.5,4.4-27,8.8-40.6,13.1c-8.5-4.5-17-9-25.5-13.5   c-0.6-5.8-1.2-11.5-1.8-17.3c-1.4-0.3-2.6-1.4-3.5-2.5c-1.7-2.1-2.5-4.8-2.9-7.4C9.1,52.4,9,50.2,9.2,48c0.3-2,0.8-4,2-5.8   c0.6-0.8,1.3-1.6,2.1-2.1c-0.7-7-1.5-13.9-2.2-20.9c5.6,2.3,11.2,4.6,16.8,7c1.1-2.5,2.7-4.8,4.7-6.7c-2.8-0.2-5.7-0.5-8.4-1.1   c-0.9-0.2-1.7-0.4-2.5-0.8c-0.2-0.1-0.5-0.4-0.4-0.7c0.2-0.3,0.6-0.5,0.9-0.6c1.1-0.4,2.2-0.6,3.4-0.8c2.8-0.5,5.7-0.7,8.5-1   c0-2.1,0-4.2,0-6.3c0-0.5,0.4-0.7,0.8-0.9C35.9,6.7,37,6.5,38,6.2 M43.5,35.1c0,19.1,0,38.3,0,57.4c12.6-4.1,25.2-8.2,37.9-12.3   c0.5-5.2,1.1-10.5,1.6-15.7c-2.8-0.3-5.6-0.5-8.4-0.8c-0.8-0.1-1.5-0.1-2.2-0.4c-1.2-0.5-2.2-1.7-2.4-3.1c-0.2-1,0.1-2.1,0.6-2.9   c-1-0.6-1.7-1.6-1.9-2.7c-0.2-1.1,0-2.3,0.7-3.2c-0.7-0.5-1.3-1.2-1.5-2.1c-0.4-1.1-0.2-2.3,0.3-3.3c0.6-1,1.5-1.7,2.6-2   c-0.4-1.1-0.3-2.4,0.3-3.4c0.6-1.1,1.8-1.9,3.1-2.1c0.5-0.1,1.1,0,1.6,0.1c3.3,0.3,6.6,0.6,9.9,0.9c0.6-5.7,1.2-11.4,1.8-17.1   C72.8,26.8,58.1,30.9,43.5,35.1 M36.4,23.1c-1.2,0.5-2.1,1.5-2.4,2.7c-0.3,1-0.2,2,0.2,2.9c1.8,0.7,3.5,1.5,5.3,2.2   c1-0.4,1.9-1.2,2.3-2.1c-0.5,0.1-0.9,0-1.4-0.2c-0.7-0.3-1.1-1-1.2-1.7c-0.1-0.7,0.3-1.5,0.9-1.9c0.4-0.3,0.9-0.4,1.4-0.4   c-0.4-0.6-0.9-1-1.5-1.4C39,22.7,37.6,22.6,36.4,23.1 M50.2,23.9c-0.9,0.9-1.4,2.2-1.3,3.4c0.1,1.2,0.8,2.4,1.8,3.1   c1.9-0.5,3.8-1.1,5.6-1.6c-0.8,0-1.6-0.6-1.9-1.3c-0.3-0.7-0.1-1.6,0.4-2.2c0.4-0.5,1.1-0.7,1.7-0.7c-0.7-1-1.8-1.7-2.9-1.8   C52.4,22.6,51.1,23.1,50.2,23.9 M14.1,23.1c0.6,5.5,1.1,11,1.7,16.4c3.2-0.3,6.3-0.5,9.5-0.8c0.5,0,1-0.1,1.4,0   c1.3,0.1,2.4,0.9,3.1,2c0.6,1,0.7,2.4,0.3,3.5c0.9,0.2,1.8,0.8,2.3,1.6c0.7,0.9,0.9,2.1,0.7,3.2c-0.2,1-0.8,2-1.7,2.6   c0.7,0.9,0.9,2.2,0.6,3.3c-0.3,1.1-1,2-1.9,2.5c0.7,1,0.8,2.3,0.5,3.4c-0.5,1.5-1.9,2.7-3.5,2.8c-2.9,0.2-5.8,0.5-8.6,0.7   c0.5,5.3,1.1,10.5,1.7,15.8C27.5,84.1,34.9,88,42.3,92c0-19.1,0-38.1,0-57.2C32.9,30.9,23.5,27,14.1,23.1 M25.9,41.2   c-3.7,0.3-7.3,0.6-11,0.9c-0.2,0-0.4,0.2-0.6,0.3c-0.6,0.4-1,1-1.3,1.6c-0.7,1.2-1.1,2.6-1.3,3.9c-0.3,1.8-0.2,3.7,0,5.5   c0.2,1.7,0.6,3.4,1.3,4.9c0.6,1.2,1.3,2.3,2.3,3.1c0.4,0.3,0.8,0.6,1.3,0.5c3.4-0.3,6.7-0.5,10.1-0.8c0.7-0.1,1.3-0.7,1.4-1.4   c0.1-0.7-0.4-1.4-1.1-1.6c-0.3-0.1-0.7-0.1-1,0c-2.4,0.2-4.9,0.4-7.3,0.6c-0.6,0.1-1.3-0.4-1.4-1.1c-0.1-0.7,0.4-1.4,1.1-1.4   c3.2-0.3,6.4-0.5,9.6-0.8c0.5,0,1-0.4,1.3-0.8c0.2-0.5,0.2-1,0-1.5c-0.3-0.5-0.9-0.8-1.5-0.8c-3.2,0.3-6.4,0.5-9.6,0.8   c-0.6,0.1-1.3-0.5-1.3-1.1c-0.1-0.7,0.5-1.3,1.1-1.4c3.7-0.3,7.4-0.6,11.1-0.9c0.9-0.1,1.6-1.1,1.4-2c-0.2-0.7-0.9-1.2-1.6-1.1   c-3.6,0.3-7.1,0.6-10.7,0.9c-0.3,0-0.7,0.1-1-0.1c-0.5-0.2-0.8-0.8-0.8-1.3c0.1-0.6,0.6-1,1.2-1.1c2.9-0.2,5.7-0.5,8.6-0.7   c0.9,0,1.6-0.8,1.5-1.7C27.7,41.8,26.8,41.1,25.9,41.2 M74.2,41.2c-0.6,0.2-1.1,0.8-1.1,1.5c0,0.8,0.6,1.5,1.4,1.5   c2.8,0.3,5.6,0.5,8.5,0.8c0.3,0,0.6,0.1,0.9,0.3c0.5,0.4,0.6,1.1,0.3,1.7c-0.3,0.4-0.7,0.6-1.2,0.6c-3.7-0.4-7.4-0.7-11.1-1.1   c-0.8-0.1-1.6,0.6-1.6,1.4c-0.1,0.8,0.6,1.6,1.4,1.7c3.7,0.4,7.4,0.7,11.1,1.1c0.5,0,1,0.5,1.1,1c0.1,0.6-0.2,1.2-0.8,1.4   c-0.3,0.1-0.6,0.1-0.9,0c-3.1-0.3-6.1-0.6-9.2-0.9c-0.3,0-0.6,0-0.9,0.2c-0.6,0.3-0.9,1-0.8,1.6c0.1,0.7,0.7,1.3,1.4,1.3   c3.2,0.3,6.4,0.6,9.6,0.9c0.6,0.1,1,0.6,1.1,1.2c0,0.5-0.3,1.1-0.8,1.3c-0.3,0.1-0.7,0.1-1,0c-2.4-0.2-4.9-0.5-7.3-0.7   c-0.8-0.1-1.5,0.5-1.6,1.3c-0.1,0.6,0.2,1.3,0.8,1.6c0.3,0.2,0.6,0.2,1,0.2c3.2,0.3,6.3,0.6,9.5,0.9c0.2,0,0.5,0.1,0.7,0   c0.7-0.2,1.2-0.7,1.7-1.2c1-1,1.6-2.3,2.1-3.7c0.6-1.8,0.9-3.7,1.1-5.6c0.1-2,0-4.1-0.7-6c-0.4-1-0.9-2.1-1.7-2.8   c-0.3-0.2-0.6-0.5-0.9-0.5c-3.5-0.3-7-0.7-10.5-1C74.9,41.2,74.5,41.1,74.2,41.2z"></path></g></svg>