<svg xmlns="http://www.w3.org/2000/svg" xmlns:xlink="http://www.w3.org/1999/xlink" version="1.1" x="0px" y="0px" viewBox="0 0 100 100" enable-background="new 0 0 100 100" xml:space="preserve"><path d="M93.325,43.036l-2.146-3.548l-2.136,3.555c-1.614,2.688-9.469,16.456-5.5,23.468c0.99,1.75,3.13,3.836,7.696,3.836  c4.563,0,6.696-2.084,7.683-3.832C102.874,59.504,94.953,45.726,93.325,43.036z"></path><path d="M100,0h-7.779L75.3,16.922l-2.274-2.275l-6.842,6.838c-1.724-0.522-3.534-0.792-5.387-0.792  c-4.944,0-9.593,1.925-13.09,5.421L14.85,58.971l9.201,9.201l-6.911,6.911l-9.361-9.36L0,73.5L26.5,100l7.778-7.777l-9.361-9.361  l6.911-6.912l9.201,9.201l32.856-32.856c3.497-3.497,5.423-8.146,5.423-13.09c0-1.853-0.271-3.664-0.793-5.388l6.839-6.838  l-2.275-2.276L100,7.778V0z M71.615,44.75H37.75l14.028-14.028c4.816-4.815,12.624-4.815,17.438,0  C73.012,34.518,73.803,40.167,71.615,44.75z"></path></svg>